<mxfile host="app.diagrams.net" modified="2023-03-25T16:52:11.461Z" agent="5.0 (Windows NT 10.0; Win64; x64) AppleWebKit/537.36 (KHTML, like Gecko) Chrome/110.0.0.0 Safari/537.36 Edg/110.0.1587.69" etag="XduxHojPVR8ZaX7dfbEM" version="20.8.20" type="github">
  <diagram id="C5RBs43oDa-KdzZeNtuy" name="Page-1">
    <mxGraphModel dx="246" dy="147" grid="1" gridSize="10" guides="1" tooltips="1" connect="1" arrows="1" fold="1" page="1" pageScale="1" pageWidth="827" pageHeight="1169" math="0" shadow="0">
      <root>
        <mxCell id="WIyWlLk6GJQsqaUBKTNV-0" />
        <mxCell id="WIyWlLk6GJQsqaUBKTNV-1" parent="WIyWlLk6GJQsqaUBKTNV-0" />
        <mxCell id="Au55FGA9Pkdlzi18izdJ-8" style="edgeStyle=orthogonalEdgeStyle;rounded=0;orthogonalLoop=1;jettySize=auto;html=1;entryX=0.472;entryY=-0.045;entryDx=0;entryDy=0;entryPerimeter=0;" edge="1" parent="WIyWlLk6GJQsqaUBKTNV-1" source="Au55FGA9Pkdlzi18izdJ-0" target="Au55FGA9Pkdlzi18izdJ-3">
          <mxGeometry relative="1" as="geometry">
            <Array as="points">
              <mxPoint x="217" y="120" />
              <mxPoint x="217" y="120" />
            </Array>
          </mxGeometry>
        </mxCell>
        <mxCell id="Au55FGA9Pkdlzi18izdJ-0" value="输入文字" style="shape=parallelogram;perimeter=parallelogramPerimeter;whiteSpace=wrap;html=1;fixedSize=1;" vertex="1" parent="WIyWlLk6GJQsqaUBKTNV-1">
          <mxGeometry x="160" y="40" width="120" height="60" as="geometry" />
        </mxCell>
        <mxCell id="Au55FGA9Pkdlzi18izdJ-9" style="edgeStyle=orthogonalEdgeStyle;rounded=0;orthogonalLoop=1;jettySize=auto;html=1;entryX=0.5;entryY=0;entryDx=0;entryDy=0;" edge="1" parent="WIyWlLk6GJQsqaUBKTNV-1" source="Au55FGA9Pkdlzi18izdJ-1" target="Au55FGA9Pkdlzi18izdJ-4">
          <mxGeometry relative="1" as="geometry" />
        </mxCell>
        <mxCell id="Au55FGA9Pkdlzi18izdJ-1" value="输入图片" style="shape=parallelogram;perimeter=parallelogramPerimeter;whiteSpace=wrap;html=1;fixedSize=1;" vertex="1" parent="WIyWlLk6GJQsqaUBKTNV-1">
          <mxGeometry x="340" y="40" width="120" height="60" as="geometry" />
        </mxCell>
        <mxCell id="Au55FGA9Pkdlzi18izdJ-10" style="edgeStyle=orthogonalEdgeStyle;rounded=0;orthogonalLoop=1;jettySize=auto;html=1;entryX=0.203;entryY=-0.06;entryDx=0;entryDy=0;entryPerimeter=0;" edge="1" parent="WIyWlLk6GJQsqaUBKTNV-1" source="Au55FGA9Pkdlzi18izdJ-3" target="Au55FGA9Pkdlzi18izdJ-5">
          <mxGeometry relative="1" as="geometry" />
        </mxCell>
        <mxCell id="Au55FGA9Pkdlzi18izdJ-3" value="文字编码器" style="rounded=1;whiteSpace=wrap;html=1;" vertex="1" parent="WIyWlLk6GJQsqaUBKTNV-1">
          <mxGeometry x="160" y="140" width="120" height="60" as="geometry" />
        </mxCell>
        <mxCell id="Au55FGA9Pkdlzi18izdJ-11" style="edgeStyle=orthogonalEdgeStyle;rounded=0;orthogonalLoop=1;jettySize=auto;html=1;entryX=0.8;entryY=-0.022;entryDx=0;entryDy=0;entryPerimeter=0;" edge="1" parent="WIyWlLk6GJQsqaUBKTNV-1" source="Au55FGA9Pkdlzi18izdJ-4" target="Au55FGA9Pkdlzi18izdJ-5">
          <mxGeometry relative="1" as="geometry">
            <Array as="points" />
          </mxGeometry>
        </mxCell>
        <mxCell id="Au55FGA9Pkdlzi18izdJ-4" value="图片编码器" style="rounded=1;whiteSpace=wrap;html=1;" vertex="1" parent="WIyWlLk6GJQsqaUBKTNV-1">
          <mxGeometry x="340" y="140" width="120" height="60" as="geometry" />
        </mxCell>
        <mxCell id="Au55FGA9Pkdlzi18izdJ-5" value="文字图片相似度匹配" style="rounded=1;whiteSpace=wrap;html=1;" vertex="1" parent="WIyWlLk6GJQsqaUBKTNV-1">
          <mxGeometry x="160" y="240" width="300" height="60" as="geometry" />
        </mxCell>
        <mxCell id="Au55FGA9Pkdlzi18izdJ-6" value="级联自动编码器" style="rounded=1;whiteSpace=wrap;html=1;" vertex="1" parent="WIyWlLk6GJQsqaUBKTNV-1">
          <mxGeometry x="160" y="340" width="300" height="60" as="geometry" />
        </mxCell>
        <mxCell id="Au55FGA9Pkdlzi18izdJ-7" value="输出海报" style="rounded=1;whiteSpace=wrap;html=1;" vertex="1" parent="WIyWlLk6GJQsqaUBKTNV-1">
          <mxGeometry x="160" y="440" width="300" height="60" as="geometry" />
        </mxCell>
      </root>
    </mxGraphModel>
  </diagram>
</mxfile>
